<?xml version="1.0" encoding="utf-8"?>
<!-- Generator: Adobe Illustrator 21.1.0, SVG Export Plug-In . SVG Version: 6.00 Build 0)  -->
<svg version="1.1" id="Ebene_1"
	xmlns="http://www.w3.org/2000/svg"
	xmlns:xlink="http://www.w3.org/1999/xlink" x="0px" y="0px" viewBox="0 0 273 74.3" style="enable-background:new 0 0 273 74.3;" xml:space="preserve">
	<style type="text/css">
	.st0{fill:#010202;}
	.st1{fill:#49BED4;}
	.st2{fill:#E44D6A;}
	</style>
	<g>
		<path class="st0" fill="#010202" d="M83.4,35.9H67.7c0.2,6.4,3.7,8.8,7.2,8.8c3,0,5.8-1.7,6.8-5.5h1.5c-1.1,4.5-4.5,6.7-8.3,6.7
		c-4.7,0-8.6-3.5-8.6-10.4c0-6.3,3.9-10.3,8.9-10.3c5.6,0,8.3,4.7,8.3,9.8C83.5,35.2,83.5,35.4,83.4,35.9z M67.7,34.7H82
		c-0.2-6.1-3.6-8.3-6.9-8.3C71.7,26.3,67.9,29,67.7,34.7z"/>
		<path class="st0" fill="#010202" d="M88.9,40.6c0,1.1,0,1.8,0,2.4c0.1,1.2,0.6,1.5,2.2,1.3v1.1c-0.4,0.1-0.9,0.1-1.4,0.1c-1.2,0-2.1-0.5-2.2-2.2
		c0-0.7,0-1.4,0-2.7V17.9h1.4V40.6z"/>
		<path class="st0" fill="#010202" d="M107.5,41.1l-0.9,2c-1.3,1.9-3.5,2.8-6,2.8c-3.7,0-6.2-1.8-6.2-5.4c0-4.6,5.2-6.6,11.8-6.6h1.3V33
		c0-0.9,0-1.7-0.1-2.5c-0.2-2.7-1.9-4.2-5.1-4.2c-2.7,0-5.3,1.5-5.7,4.9h-1.5c0.3-3.5,3.1-6.1,7.2-6.1c4.1,0,6.2,1.9,6.5,5.2
		c0.1,1,0.1,1.6,0.1,2.6v6.4c0,2.1,0.1,3.5,0.3,6h-1.5L107.5,41.1z M107.5,37.6v-2.5c-5.7-0.4-11.5,1.1-11.5,5.4
		c0,2.7,1.6,4.3,4.9,4.3C104.9,44.7,107.5,41.4,107.5,37.6z"/>
		<path class="st0" fill="#010202" d="M129.5,34.4v11h-1.4V34.7c0-1.3,0-2.2-0.1-3.2c-0.3-3.1-2-5.2-5.6-5.2c-3.5,0-6.7,2.4-6.7,8.1v10.9h-1.4V25.7
		h1.4v4.2l0.9-2.1c1.5-1.9,3.6-2.7,5.9-2.7c4.1,0,6.5,2.2,6.9,6C129.5,32.1,129.5,32.8,129.5,34.4z"/>
		<path class="st0" fill="#010202" d="M150.3,31.9h-1.5c-0.7-3.5-3-5.6-6.6-5.6c-3.6,0-7.4,2.9-7.4,9c0,6.4,3.6,9.4,7.3,9.4c3.2,0,5.9-1.9,6.6-5.3
		h1.5c-0.8,4.1-4,6.5-8.2,6.5c-4.9,0-8.8-3.7-8.8-10.4c0-6.5,4.2-10.4,9.1-10.4C146.7,25.1,149.7,27.9,150.3,31.9z"/>
		<path class="st0" fill="#010202" d="M169.9,35.9h-15.7c0.2,6.4,3.7,8.8,7.2,8.8c3,0,5.8-1.7,6.8-5.5h1.5c-1.1,4.5-4.5,6.7-8.3,6.7
		c-4.7,0-8.6-3.5-8.6-10.4c0-6.3,3.9-10.3,8.9-10.3c5.6,0,8.3,4.7,8.3,9.8C169.9,35.2,169.9,35.4,169.9,35.9z M154.1,34.7h14.3
		c-0.2-6.1-3.6-8.3-6.9-8.3C158.1,26.3,154.4,29,154.1,34.7z"/>
		<path class="st0" fill="#010202" d="M181.5,25.2v1.2c-3.6-0.3-6.1,2.1-6.1,8v10.9H174V25.7h1.4v4l1-2.4c1-1.3,2.4-2.1,4-2.1
		C180.8,25.1,181.2,25.2,181.5,25.2z"/>
		<path class="st0" fill="#010202" d="M192,38.2c0,0.7,0,1.2,0,1.8c0.2,1.9,0.9,2.4,3.7,2.2v3.4c-1.2,0.2-2.2,0.3-3.4,0.3c-3.9,0-5.2-1.3-5.5-4.1
		c-0.1-0.9-0.1-1.8-0.1-2.9V28.6h-2.9v-3.4h2.9v-4.5h5.2v4.5h4.1v3.4H192V38.2z"/>
		<path class="st0" fill="#010202" d="M217,36.8h-14.1c0.3,4.2,2.2,5.5,4.6,5.5c2.2,0,3.8-1.2,4.2-3.4h5.2c-1,4.6-4.8,7-9.4,7
		c-5.5,0-9.7-3.4-9.7-10.4c0-6.1,4-10.6,10.1-10.6c6.1,0,9.3,4.6,9.3,10.1C217.1,35.5,217.1,36.1,217,36.8z M203,33.4h8.8
		c-0.3-3.1-1.8-4.8-4.2-4.8C205.1,28.6,203.5,30.1,203,33.4z"/>
		<path class="st0" fill="#010202" d="M231.8,42.5l-1,2.1c-1.4,0.9-3.1,1.3-4.9,1.3c-3.4,0-6.4-2-6.4-5.8c0-4.4,3.7-6.8,11-6.8h1.3v-0.4
		c0-0.6,0-1.2-0.1-1.9c-0.1-1.4-1-2.4-3.1-2.4c-2.1,0-3.2,1.2-3.3,3.4l-5,0c0.1-4.5,3.8-7,8.5-7c5.6,0,7.7,2.4,8,5.9
		c0.1,0.9,0.1,2,0.1,3.1v6.4c0,1.5,0.1,2.8,0.4,5.1h-5.1L231.8,42.5z M231.8,38v-1.6c-4.1-0.3-6.9,0.6-6.9,3.3c0,1.8,1.2,2.6,3,2.6
		C230,42.3,231.8,40.8,231.8,38z"/>
		<path class="st0" fill="#010202" d="M271.4,33.5v11.9h-5.2V35c0-1.2,0-2.2-0.2-3.3c-0.3-2.1-1.4-3.2-3.4-3.2c-2.3,0-3.6,2-3.6,6.6v10.2H254V35
		c0-1.2,0-2.2-0.1-3.3c-0.3-2.1-1.4-3.2-3.4-3.2c-2.3,0-3.6,2-3.6,6.6v10.2h-5.2V25.5h5.2v3l1.5-2.4c1.1-0.8,2.4-1.2,4.2-1.2
		c3.3,0,5.3,1.6,6.1,3.8l1.9-2.6c1.1-0.8,2.5-1.2,4.3-1.2c3.8,0,6,2.2,6.4,4.9C271.4,30.9,271.4,31.9,271.4,33.5z"/>
	</g>
	<path class="st1" fill="#49BED4" d="M15.9,62.9c-1.5-1-2.9-2.1-4.2-3.3c3.3,6.6,6.2,9.9,6.2,9.9s4.4-1.1,9.8-2.6C23.4,66.5,19.5,65.2,15.9,62.9z"/>
	<path class="st2" fill="#E44D6A" d="M25.9,13.4c6.8-1.4,13-0.8,18.5,1.7C43,7.3,43.5,2,43.5,2S29.6,9.8,17.8,16.1l0,0
	C19.1,15.5,21.6,14.3,25.9,13.4z"/>
	<path class="st2" fill="#E44D6A" d="M55.1,40.4L22.4,47c0.8,2.2,2.2,3.9,4.3,5c2.1,1.1,4.2,1.4,6.3,1c2.1-0.4,3.6-0.9,4.6-1.6
	c0.9-0.6,1.6-1.2,2-1.7c0.4-0.5,1.5-1.7,1.8-2.2l13.7,7c-0.8,1.2-1.8,2.5-2.9,3.6c-4,4.1-9.2,6.8-15.6,8.1c-0.6,0.1-1.2,0.2-1.9,0.3
	c5.6,4.9,10.1,7.7,10.1,7.7S65.6,63,73.4,57.8C65.3,52.4,59.5,46.4,55.1,40.4z"/>
	<path class="st2" fill="#E44D6A" d="M28.9,26.9c-2.6,0.5-4.7,1.7-6.2,3.6c-1.5,1.9-2.2,4.1-2.2,6.6L40.7,33c-0.7-2.4-2.2-4.1-4.5-5.2
	C33.9,26.6,31.5,26.3,28.9,26.9z"/>
	<g>
		<path class="st1" fill="#49BED4" d="M32.5,8.1C33.1,3.2,33.8,0,33.8,0l-32,8.5c-0.4,10.6,0.5,19.8,2,27.6c0.4-4.3,1.8-8.2,4.2-11.7
		c2.5-3.6,5.8-6.4,9.9-8.4C22.8,13.4,28.1,10.6,32.5,8.1z"/>
	</g>
</svg>
