<?xml version="1.0" encoding="UTF-8"?><svg id="a" xmlns="http://www.w3.org/2000/svg" viewBox="0 0 255 113.91"><g id="b"><path d="m0,0v113.91l126.79-12.44,128.21,12.44V0H0Z" style="fill:#fff;"/></g><path d="m141.9,29.28c0-11.19-9.1-20.26-20.33-20.26s-20.33,9.07-20.33,20.26c0,5.05,1.32,11.02,4.63,14.28.79.78-1.78-4.66-1.83-9.85-.11-10.38,8.23-18.78,18.37-18.78s18.58,8.04,18.22,18.42c-.04,1.07-.4,3.04-.07,3.07.65.07,1.32-4.11,1.32-7.14" style="fill:#79a359;"/><path d="m137.32,32.7c0-7.31-6.74-13.23-15.06-13.23-7.87,0-14.31,5.3-14.99,12.05,1.65-4.85,6.4-8.36,12-8.36,6.97,0,12.63,5.43,12.63,12.13,0,4.28-2.32,8.04-5.81,10.19,6.46-1.49,11.23-6.64,11.23-12.78" style="fill:#3da435;"/><path d="m137.32,32.7c0-7.31-6.74-13.23-15.06-13.23-7.87,0-14.31,5.39-14.99,12.05-.06.57,2.24-8.25,12-8.36,6.97-.08,12.63,5.43,12.63,12.13,0,4.28-2.32,8.04-5.81,10.19,6.46-1.49,11.23-6.64,11.23-12.78" style="fill:#bd8b75;"/><path d="m151.22,29.81c0-13.8-11.18-24.99-24.99-24.99-4.15,0-8.92,1.19-11.49,2.78-.24.12-.32.27-.2.31.2.07,2.2-.97,6.45-1.04,13.08-.19,23.91,9.5,23.91,20.82,0,10.27-6.52,21.56-21.98,20.18-4.9-.44-8.33-4.3-8.33-7.87s3.36-5.55,6.76-5.55,6.16,2.89,6.16,6.46c0,.97.79-.5.79-2.34,0-5.6-4.56-10.13-10.19-10.13s-10.8,4.49-10.85,10.09c-.07,8.05,4.37,16.01,18.97,16.26,13.35.24,24.99-11.18,24.99-24.99" style="fill:#0073ab;"/><path d="m38.35,70.33c-1.24.13-1.63.33-1.7,1.24,0,.65-.07,1.44-.07,3.26v7.77h-.72l-8.29-10.19v4.83c0,1.76.07,2.61.07,3.2.07.98.52,1.31,1.89,1.37v.52h-4.7v-.52c1.18-.07,1.7-.39,1.76-1.37.07-.65.07-1.5.07-3.26v-4.96c0-.52-.07-.85-.39-1.31-.39-.46-.78-.59-1.7-.72v-.52h2.94l8.23,9.79v-4.77c0-1.83-.07-2.61-.07-3.2-.07-.85-.52-1.18-2.09-1.24v-.52h4.77v.59h0Z" style="fill:#122b40;"/><path d="m46.19,72.1c-.65,1.7-1.31,3.46-1.89,4.96h3.66l-1.76-4.96Zm1.89,10.32v-.52c1.24-.13,1.44-.33,1.18-1.11s-.65-1.7-1.04-2.94h-4.18c-.33.85-.59,1.63-.85,2.42-.46,1.24-.13,1.44,1.44,1.63v.52h-4.51v-.52c1.24-.13,1.5-.26,2.22-2.02l4.05-10.19.65-.13c1.24,3.33,2.55,6.99,3.79,10.32.65,1.7.78,1.83,2.15,2.02v.52s-4.9,0-4.9,0Z" style="fill:#122b40;"/><path d="m63.75,72.88c-.2-.65-.39-1.24-.65-1.63-.33-.52-.52-.65-1.57-.65h-1.96v9.47c0,1.5.13,1.7,2.02,1.83v.52h-5.68v-.52c1.83-.13,1.96-.33,1.96-1.83v-9.47h-1.76c-1.04,0-1.37.13-1.7.72-.26.39-.39.85-.65,1.57h-.59c.13-1.18.26-2.42.26-3.53h.46c.26.46.52.46,1.04.46h7.7c.52,0,.72-.07.98-.46h.46c0,.91.07,2.29.2,3.46,0,0-.52.07-.52.07Z" style="fill:#122b40;"/><path d="m80.79,70.33c-1.24.07-1.7.39-1.7,1.31,0,.46-.07,1.24-.07,3.07v2.09c0,1.96-.26,3.53-1.37,4.7-.91.98-2.22,1.24-3.59,1.24-1.11,0-2.35-.26-3.2-.91-1.18-.91-1.7-2.22-1.7-4.51v-4.96c0-1.76-.13-1.89-1.7-2.02v-.52h5.09v.52c-1.57.07-1.7.26-1.7,2.02v4.83c0,2.81,1.37,4.37,3.66,4.37,2.74,0,3.66-1.7,3.66-4.96v-1.96c0-1.76-.07-2.55-.07-3.07-.07-.85-.52-1.18-1.96-1.31v-.52h4.64v.59h0Z" style="fill:#122b40;"/><path d="m87.71,76.28c.98,0,1.63-.13,2.15-.59.78-.59,1.04-1.37,1.04-2.42,0-2.09-1.37-2.81-2.87-2.81-.59,0-.91.07-1.04.2-.2.13-.26.33-.26.85v4.77s.98,0,.98,0Zm7.18,6.33c-.26,0-.46,0-.72-.07-1.44-.07-2.15-.46-3-1.7-.72-.98-1.44-2.22-2.02-3.2-.39-.65-.65-.72-1.63-.72h-.65v3.07c0,1.63.2,1.76,1.76,1.89v.52h-5.29v-.52c1.63-.2,1.76-.26,1.76-1.89v-7.77c0-1.63-.2-1.7-1.76-1.89v-.52h4.96c1.44,0,2.35.2,3.13.65.78.52,1.31,1.37,1.31,2.55,0,1.7-1.04,2.74-2.48,3.33.33.59,1.18,1.89,1.76,2.81.72,1.04,1.11,1.5,1.5,2.02.52.59.98.78,1.44.91l-.07.52Z" style="fill:#122b40;"/><path d="m106.84,79.21c-.13.59-.72,2.61-.91,3.2h-9.01v-.52c1.76-.2,1.89-.26,1.89-1.89v-7.7c0-1.63-.2-1.76-1.76-1.89v-.52h5.22v.52c-1.57.13-1.76.26-1.76,1.89v7.9c0,1.18.13,1.44,1.24,1.5h1.5c.98,0,1.31-.13,1.7-.59.46-.52.91-1.31,1.18-2.02,0,0,.72.13.72.13Z" style="fill:#122b40;"/><path d="m109.59,82.41v-.52c1.57-.2,1.76-.26,1.76-1.89v-7.7c0-1.7-.13-1.76-1.76-1.89v-.52h5.22v.52c-1.63.2-1.76.26-1.76,1.89v7.7c0,1.7.13,1.7,1.76,1.89v.52h-5.22Z" style="fill:#122b40;"/><path d="m129.7,79.34c-.26.91-.78,2.35-1.04,2.94-.59.07-2.09.46-3.53.46-4.64,0-6.99-3.2-6.99-6.46,0-4.18,3.07-6.73,7.44-6.73,1.57,0,2.94.39,3.59.46.07.85.2,2.09.39,3l-.59.13c-.39-1.31-.91-2.15-1.89-2.55-.52-.26-1.18-.33-1.96-.33-3.26,0-4.96,2.61-4.96,5.55,0,3.72,2.15,6.14,5.09,6.14,1.96,0,2.94-.91,3.92-2.87l.52.26h0Z" style="fill:#122b40;"/><path d="m146.61,70.33c-1.63.13-1.76.26-1.76,1.89v7.77c0,1.63.2,1.7,1.76,1.89v.52h-5.22v-.52c1.63-.2,1.76-.26,1.76-1.89v-3.85h-6.66v3.85c0,1.63.13,1.7,1.76,1.89v.52h-5.16v-.52c1.57-.2,1.76-.26,1.76-1.89v-7.77c0-1.63-.2-1.7-1.76-1.89v-.52h5.16v.52c-1.57.13-1.76.26-1.76,1.89v3.07h6.66v-3.07c0-1.63-.2-1.76-1.76-1.89v-.52h5.22v.52Z" style="fill:#122b40;"/><path d="m160.12,76.28c.98,0,1.63-.13,2.15-.59.78-.59,1.04-1.37,1.04-2.42,0-2.09-1.37-2.81-2.87-2.81-.59,0-.91.07-1.04.2-.2.13-.26.33-.26.85v4.77h.98,0Zm7.18,6.33c-.26,0-.46,0-.72-.07-1.44-.07-2.15-.46-3-1.7-.72-.98-1.44-2.22-2.02-3.2-.39-.65-.65-.72-1.63-.72h-.65v3.07c0,1.63.2,1.76,1.76,1.89v.52h-5.16v-.52c1.63-.2,1.76-.26,1.76-1.89v-7.77c0-1.63-.2-1.7-1.76-1.89v-.52h4.96c1.44,0,2.35.2,3.13.65.78.52,1.31,1.37,1.31,2.55,0,1.7-1.04,2.74-2.48,3.33.33.59,1.18,1.89,1.76,2.81.72,1.04,1.11,1.5,1.5,2.02.52.59.98.78,1.44.91l-.2.52h0Z" style="fill:#122b40;"/><path d="m179.58,79.34c-.13.52-.65,2.48-.85,3.07h-9.4v-.52c1.83-.13,1.96-.33,1.96-1.89v-7.64c0-1.7-.2-1.83-1.7-1.96v-.52h5.94c1.83,0,2.61,0,2.81-.07,0,.46.07,1.96.2,2.94l-.59.07c-.2-.65-.39-1.04-.59-1.5-.33-.65-.78-.78-1.89-.78h-1.83c-.59,0-.65.07-.65.65v4.31h2.15c1.44,0,1.57-.26,1.76-1.63h.59v3.98h-.59c-.26-1.37-.39-1.57-1.83-1.57h-2.15v3.85c0,1.37.46,1.5,1.37,1.5h1.83c1.18,0,1.37-.2,1.83-.65.39-.39.78-1.18,1.04-1.76l.59.13h0Z" style="fill:#122b40;"/><path d="m182.39,82.41v-.52c1.57-.2,1.76-.26,1.76-1.89v-7.7c0-1.7-.13-1.76-1.76-1.89v-.52h5.22v.52c-1.63.2-1.76.26-1.76,1.89v7.7c0,1.7.13,1.7,1.76,1.89v.52h-5.22Z" style="fill:#122b40;"/><path d="m197.41,72.82c-.33-1.31-.98-2.55-2.68-2.55-1.5,0-2.09,1.04-2.09,2.09,0,1.37.91,2.09,2.48,2.87,1.5.78,3.33,1.7,3.33,3.85s-1.76,3.66-4.24,3.66c-1.04,0-2.15-.33-3-.59-.13-.46-.39-2.09-.52-3l.59-.13c.33,1.18,1.18,3,3.2,3,1.5,0,2.35-.91,2.35-2.29s-.98-2.09-2.48-2.94c-1.24-.65-3.2-1.63-3.2-3.85,0-1.89,1.37-3.4,3.92-3.4,1.18,0,2.22.26,2.68.33.07.72.13,1.5.33,2.81l-.65.13Z" style="fill:#122b40;"/><path d="m211.64,79.34c-.13.52-.65,2.48-.85,3.07h-9.4v-.52c1.83-.13,1.96-.33,1.96-1.89v-7.64c0-1.7-.2-1.83-1.7-1.96v-.52h5.94c1.83,0,2.61,0,2.81-.07,0,.46.07,1.96.2,2.94l-.59.07c-.2-.65-.39-1.04-.59-1.5-.33-.65-.78-.78-1.89-.78h-1.83c-.59,0-.65.07-.65.65v4.31h2.15c1.44,0,1.57-.26,1.76-1.63h.59v3.98h-.59c-.26-1.37-.39-1.57-1.83-1.57h-2.15v3.85c0,1.37.46,1.5,1.37,1.5h1.83c1.18,0,1.37-.2,1.83-.65.39-.39.78-1.18,1.04-1.76l.59.13h0Z" style="fill:#122b40;"/><path d="m227.9,70.33c-1.24.13-1.63.33-1.7,1.24,0,.65-.07,1.44-.07,3.26v7.77h-.72l-8.29-10.19v4.83c0,1.76.07,2.61.07,3.2.07.98.52,1.31,1.89,1.37v.52h-4.7v-.52c1.18-.07,1.7-.39,1.76-1.37.07-.65.07-1.5.07-3.26v-4.96c0-.52-.07-.85-.39-1.31-.39-.46-.78-.59-1.7-.72v-.52h2.94l8.23,9.79v-4.77c0-1.83-.07-2.61-.07-3.2-.07-.85-.52-1.18-2.09-1.24v-.52h4.77v.59h0Z" style="fill:#122b40;"/><polygon points="85.43 91.49 85.43 97.5 88.76 97.5 88.76 96.84 86.08 96.84 86.08 91.49 85.43 91.49" style="fill:#122b40;"/><path d="m96.92,91.49v3.85c0,.65-.2,1.24-.59,1.63s-.98.59-1.7.59-1.31-.2-1.7-.59-.59-.91-.59-1.63v-3.85h.72v3.92c0,.52.13.91.39,1.18.26.26.65.39,1.18.39s.91-.13,1.18-.39c.26-.26.39-.65.39-1.18v-3.92h.72Z" style="fill:#122b40;"/><polygon points="104.23 91.49 102.73 93.84 101.29 91.49 100.51 91.49 102.34 94.36 100.38 97.5 101.1 97.5 102.73 94.82 104.36 97.5 105.15 97.5 103.12 94.3 105.02 91.49 104.23 91.49" style="fill:#122b40;"/><path d="m113.18,91.49v3.85c0,.65-.2,1.24-.59,1.63s-.98.59-1.7.59-1.31-.2-1.7-.59-.59-.91-.59-1.63v-3.85h.72v3.92c0,.52.13.91.39,1.18s.65.39,1.18.39.91-.13,1.18-.39.39-.65.39-1.18v-3.92h.72,0Z" style="fill:#122b40;"/><path d="m120.75,95.86c0,.52-.2.91-.59,1.24s-.91.46-1.57.46c-.72,0-1.24-.07-1.63-.26v-.65c.26.13.52.2.78.26.26.07.59.07.85.07.46,0,.78-.07,1.04-.26s.33-.39.33-.72c0-.2-.07-.39-.13-.52-.07-.13-.2-.26-.39-.39-.2-.13-.52-.26-.91-.39-.59-.2-.98-.46-1.18-.72-.26-.26-.33-.65-.33-1.04,0-.46.2-.85.52-1.11s.78-.39,1.37-.39,1.18.13,1.63.33l-.2.59c-.52-.2-.98-.33-1.44-.33-.39,0-.65.07-.85.26-.2.13-.33.39-.33.65,0,.2.07.39.13.52.07.13.2.26.39.39.2.13.46.26.85.39.65.2,1.04.46,1.31.72.2.2.33.52.33.91" style="fill:#122b40;"/><path d="m134.14,97.5h-.78l-3.26-5.03h-.07c.07.59.07,1.11.07,1.63v3.4h-.65v-6.01h.78l3.26,5.03h.07c0-.07,0-.33-.07-.72s0-.72,0-.85v-3.46h.65v6.01h0Z" style="fill:#122b40;"/><path d="m141.19,94.95l-.72-1.83c-.07-.26-.2-.52-.26-.85-.07.26-.13.52-.26.85l-.72,1.83h1.96Zm.98,2.55l-.72-1.89h-2.42l-.72,1.89h-.72l2.35-6.01h.59l2.35,6.01h-.72,0Z" style="fill:#122b40;"/><polygon points="145.63 91.49 145.63 92.08 147.52 92.08 147.52 97.5 148.24 97.5 148.24 92.08 150.13 92.08 150.13 91.49 145.63 91.49" style="fill:#122b40;"/><path d="m158.16,91.49v3.85c0,.65-.2,1.24-.59,1.63s-.98.59-1.7.59-1.31-.2-1.7-.59-.59-.91-.59-1.63v-3.85h.72v3.92c0,.52.13.91.39,1.18s.65.39,1.18.39.91-.13,1.18-.39.39-.65.39-1.18v-3.92h.72,0Z" style="fill:#122b40;"/><path d="m163.13,94.36h.98c.52,0,.85-.07,1.11-.26.26-.2.33-.46.33-.85s-.13-.65-.33-.85c-.26-.2-.59-.26-1.11-.26h-.91v2.22h-.07Zm0,.65v2.48h-.72v-6.01h1.63c.72,0,1.31.13,1.63.39s.52.72.52,1.24c0,.78-.39,1.31-1.18,1.63l1.63,2.68h-.85l-1.44-2.48h-1.24v.07h0Z" style="fill:#122b40;"/><path d="m73.81,67.27c0,.39-.33.72-.72.72s-.72-.33-.72-.72.33-.72.72-.72.72.33.72.72" style="fill:#122b40;"/><path d="m76.29,67.27c0,.39-.33.72-.72.72s-.72-.33-.72-.72.33-.72.72-.72.72.33.72.72" style="fill:#122b40;"/></svg>