<svg xmlns="http://www.w3.org/2000/svg" xmlns:xlink="http://www.w3.org/1999/xlink" width="50" height="50" viewBox="0 0 50 50">
  <defs>
    <clipPath id="clip-path">
      <rect id="Rechteck_34" data-name="Rechteck 34" width="40.005" height="40" fill="none"/>
    </clipPath>
  </defs>
  <g id="Gruppe_133" data-name="Gruppe 133" transform="translate(-24 -25)">
    <circle id="Ellipse_10" data-name="Ellipse 10" cx="25" cy="25" r="25" transform="translate(24 25)" fill="#fff"/>
    <g id="Gruppe_59" data-name="Gruppe 59" transform="translate(28.995 30)">
      <g id="Gruppe_59-2" data-name="Gruppe 59" transform="translate(0 0)" clip-path="url(#clip-path)">
        <path id="Pfad_122" data-name="Pfad 122" d="M32.545,20.416A16.273,16.273,0,0,0,0,20.416c0,4.042,1.057,8.821,3.706,11.43.632.624-1.425-3.73-1.465-7.884A14.813,14.813,0,0,1,16.945,8.93,14.346,14.346,0,0,1,31.528,23.674c-.032.856-.32,2.433-.056,2.457.52.056,1.057-3.29,1.057-5.715" transform="translate(0 -0.838)" fill="#79a359"/>
        <path id="Pfad_123" data-name="Pfad 123" d="M30.083,25.24c0-5.851-5.395-10.59-12.054-10.59-6.3,0-11.454,4.242-12,9.645a10.081,10.081,0,0,1,9.6-6.691,9.918,9.918,0,0,1,10.109,9.709,9.6,9.6,0,0,1-4.65,8.156c5.171-1.193,8.989-5.315,8.989-10.229" transform="translate(-1.203 -2.924)" fill="#3da435"/>
        <path id="Pfad_124" data-name="Pfad 124" d="M30.082,25.24c0-5.851-5.395-10.59-12.054-10.59-6.3,0-11.454,4.314-12,9.645a10.248,10.248,0,0,1,9.6-6.691,9.876,9.876,0,0,1,10.109,9.709,9.6,9.6,0,0,1-4.65,8.156c5.171-1.193,8.989-5.315,8.989-10.229" transform="translate(-1.203 -2.924)" fill="#bd8b75"/>
        <path id="Pfad_125" data-name="Pfad 125" d="M41.206,20a20,20,0,0,0-20-20,19.635,19.635,0,0,0-9.2,2.225c-.192.1-.256.216-.16.248a17.812,17.812,0,0,1,5.163-.832c10.469-.152,19.138,7.6,19.138,16.665,0,8.22-5.219,17.257-17.593,16.152-3.922-.352-6.667-3.442-6.667-6.3s2.689-4.442,5.411-4.442a5.055,5.055,0,0,1,4.931,5.171c0,.776.632-.4.632-1.873A8.128,8.128,0,0,0,14.7,18.906c-4.506,0-8.644,3.594-8.685,8.076C5.964,33.425,9.518,39.8,21.2,40c10.686.192,20-8.949,20-20" transform="translate(-1.201 0)" fill="#0073ab"/>
      </g>
    </g>
  </g>
</svg>
