<svg id="omkms-logo-weiss-gold" xmlns="http://www.w3.org/2000/svg" width="126" height="24.911" viewBox="0 0 126 24.911">
  <g id="Gruppe_1" data-name="Gruppe 1">
    <path id="Pfad_87" d="M22.949,12.456a12.806,12.806,0,0,1-3.38,9.281,11.265,11.265,0,0,1-8.095,3.174,11.238,11.238,0,0,1-8.095-3.19A12.8,12.8,0,0,1,0,12.456a12.685,12.685,0,0,1,3.377-9.2A11.188,11.188,0,0,1,11.475,0C18.337,0,22.949,5.005,22.949,12.456Z" fill="#fff"/>
    <path id="Pfad_88" d="M126.3,1.89V26.316h-6.171V15.964l-6.395,10.352-6.395-10.365V26.316H101.17V1.89h6.48l6.089,12.281L119.828,1.89Z" transform="translate(-75.188 -1.405)" fill="#fff"/>
    <path id="Pfad_89" d="M234.637,26.284h-6.8L222.235,15.59l-3.637,3.9-6.169,6.189V1.85H218.6v9.985l8.478-9.985h6.765l-7.291,9.035,8.085,15.4Z" transform="translate(-157.874 -1.375)" fill="#fff"/>
  </g>
  <g id="Gruppe_3" data-name="Gruppe 3" transform="translate(74.087 0.514)">
    <path id="Pfad_1" data-name="Pfad 1" d="M339.535,2H295.928l-7.448,8.989L296.441,26.4h43.094a.858.858,0,0,0,.858-.86V2.86A.86.86,0,0,0,339.535,2ZM319.262,24.274H314.28V15.758l-5.165,8.516-5.165-8.526v8.526h-4.982V4.18H304.2l4.918,10.1,4.915-10.1h5.229Zm16.449-1.847a10.23,10.23,0,0,1-6.42,1.839,8.613,8.613,0,0,1-5.642-1.823,6.666,6.666,0,0,1-2.4-4.818l4.818-.909c-.036,3.072,3.159,2.761,3.837,2.761,1.829,0,2.756-.537,2.756-1.6,0-.935-1.872-1.371-3.855-1.836-2.948-.691-6.991-1.636-6.991-5.468A5.7,5.7,0,0,1,324.1,5.891,9.6,9.6,0,0,1,330,4.183c4.6,0,7.468,2.676,7.54,7.052l-4.63-.408c-.221-2.281-1.939-2.281-3.084-2.281-1.718,0-2.643.77-2.643,1.695,0,.865,1.78,1.256,3.665,1.669h.013c3,.668,7.111,1.577,7.111,5.658a5.983,5.983,0,0,1-2.257,4.856Z" transform="translate(-288.48 -2)" fill="#bf9231"/>
    <g id="Gruppe_2" data-name="Gruppe 2" transform="translate(10.488 2.18)">
      <path id="Pfad_90" d="M349.614,10.49V30.583h-4.982V22.067l-5.165,8.516L334.3,22.057v8.526H329.32V10.49h5.231l4.918,10.1,4.915-10.1h5.229Z" transform="translate(-329.32 -10.49)" fill="#fff"/>
      <path id="Pfad_91" d="M432.8,23.9a5.983,5.983,0,0,1-2.257,4.856,10.23,10.23,0,0,1-6.42,1.839,8.613,8.613,0,0,1-5.642-1.823,6.666,6.666,0,0,1-2.4-4.818l4.818-.909c-.036,3.072,3.159,2.761,3.837,2.761,1.829,0,2.756-.537,2.756-1.6,0-.935-1.872-1.371-3.855-1.836-2.948-.691-6.991-1.636-6.991-5.468a5.7,5.7,0,0,1,2.288-4.684,9.6,9.6,0,0,1,5.894-1.708c4.6,0,7.468,2.676,7.54,7.052l-4.63-.408c-.221-2.281-1.939-2.281-3.084-2.281-1.718,0-2.643.77-2.643,1.695,0,.865,1.78,1.256,3.665,1.669h.013c3,.668,7.111,1.577,7.111,5.658Z" transform="translate(-393.799 -10.505)" fill="#fff"/>
    </g>
  </g>
</svg>
